<svg width="31" height="34" viewBox="0 0 31 34" fill="none" xmlns="http://www.w3.org/2000/svg">
<path d="M16.0545 27.8349L4.03906 20.8828L3.15565 22.4162L15.171 29.3682L16.0545 27.8349Z" fill="#4B727B"/>
<path d="M16.3631 14.1124C16.3631 14.1124 23.4487 17.2774 18.3932 24.5991C18.3932 24.5991 16.4875 24.1656 14.4603 25.571C11.9156 27.3362 11.6244 31.1529 6.91102 31.1529C2.19769 31.1529 26.8699 31.1529 26.8699 31.1529L24.4468 28.8578C24.4468 28.8578 26.4684 23.7349 25.278 18.306C23.8926 11.9873 18.5544 10.4573 18.5544 10.4573L16.3631 14.1124Z" fill="#4B727B"/>
<path d="M17.4959 14.1124C17.4959 14.1124 24.5815 17.2774 19.526 24.5991C19.526 24.5991 17.6204 24.1656 15.5931 25.571C13.0484 27.3362 12.7572 31.1529 8.04384 31.1529C3.3305 31.1529 28.0027 31.1529 28.0027 31.1529L25.5796 28.8578C25.5796 28.8578 27.6012 23.7349 26.4109 18.306C25.0254 11.9873 19.6872 10.4573 19.6872 10.4573L17.4959 14.1124Z" fill="#82AEC0"/>
<path d="M12.8702 25.0162L4.46094 20.1506L4.04114 20.8793L12.4504 25.7449L12.8702 25.0162Z" fill="#81D4FA"/>
<path d="M2.31261 26.7014L2.82711 25.5852C2.82711 25.5852 8.31984 27.7411 9.34319 28.1207L8.87675 29.1434C8.72126 29.5627 7.12687 29.353 5.31481 28.6788C3.50275 28.0045 2.15995 27.1178 2.31261 26.7014Z" fill="#4B727B"/>
<path d="M8.71725 28.1263C8.0614 28.1263 6.96738 27.8713 5.85922 27.4577C3.75881 26.6758 2.93052 25.8911 2.9701 25.7268C2.97858 25.7069 3.086 25.6361 3.42806 25.6361C4.08391 25.6361 5.17793 25.8911 6.28609 26.3047C8.3865 27.0866 9.21479 27.8713 9.17522 28.0356C9.16673 28.0555 9.05931 28.1263 8.71725 28.1263Z" fill="#B3E5FC"/>
<path d="M3.43629 25.8289C4.06952 25.8289 5.14093 26.081 6.22647 26.4861C7.71627 27.0414 8.6011 27.6278 8.89227 27.9281C8.84704 27.9338 8.79333 27.9366 8.72548 27.9366C8.09225 27.9366 7.02084 27.6845 5.9353 27.2794C4.44551 26.7241 3.56068 26.1377 3.2695 25.8374C3.31191 25.8317 3.36845 25.8289 3.43629 25.8289ZM3.43629 25.4436C3.08292 25.4436 2.85394 25.5144 2.7974 25.6589C2.64192 26.0782 3.98472 26.9621 5.79961 27.6391C6.97844 28.0783 8.06681 28.3191 8.72548 28.3191C9.07885 28.3191 9.30783 28.2482 9.36437 28.1037C9.51985 27.6845 8.17706 26.8006 6.36217 26.1235C5.18051 25.6872 4.09214 25.4436 3.43629 25.4436Z" fill="#90A4AE"/>
<path d="M4.53609 27.4015C4.53609 27.4015 3.32334 29.5205 4.77921 31.3251C5.88171 32.6906 10.5999 31.4979 10.5999 31.4979C10.5999 31.4979 6.30293 31.2203 6.20116 28.3052L4.53609 27.4015Z" fill="#4B727B"/>
<path d="M30.3525 34H0.647483C0.291226 34 0 33.7082 0 33.3513C0 31.9065 1.16773 30.7365 2.60972 30.7365H28.3903C29.8323 30.7365 31 31.9065 31 33.3513C31 33.7082 30.7116 34 30.3525 34Z" fill="#82AEC0"/>
<path d="M18.1624 31.1183C19.1819 31.1183 20.0084 30.2901 20.0084 29.2684C20.0084 28.2467 19.1819 27.4185 18.1624 27.4185C17.1429 27.4185 16.3164 28.2467 16.3164 29.2684C16.3164 30.2901 17.1429 31.1183 18.1624 31.1183Z" fill="#424242"/>
<path d="M18.5571 30.6396C19.2034 30.6396 19.7274 30.1145 19.7274 29.4668C19.7274 28.819 19.2034 28.2939 18.5571 28.2939C17.9107 28.2939 17.3867 28.819 17.3867 29.4668C17.3867 30.1145 17.9107 30.6396 18.5571 30.6396Z" fill="#BDBDBD"/>
<path d="M9.66887 17.0651L11.8626 18.3314L9.66604 21.2862C9.66604 21.2862 9.26461 21.4023 8.69075 21.0907C8.11688 20.7791 8.05469 20.3626 8.05469 20.3626L9.66887 17.0651Z" fill="#545454"/>
<path d="M20.1984 7.2059L22.4854 3.23126C22.4854 3.23126 21.9964 2.09241 20.696 1.31051C19.3956 0.528617 18.3496 0.845908 18.3496 0.845908L16.0655 4.82055C16.0626 4.82338 16.057 4.82621 16.057 4.83188C15.9072 5.09251 16.7128 5.83758 17.8549 6.49766C18.997 7.15774 20.0458 7.48069 20.1956 7.22006C20.1956 7.21723 20.1956 7.21156 20.1984 7.2059Z" fill="#82AEC0"/>
<path d="M21.1421 0.843077C18.7505 -0.584733 17.9476 0.154669 17.795 0.514455C17.7215 0.690098 17.7752 1.1547 18.0805 1.33601L18.2445 1.03005C18.3943 0.769421 19.5448 0.896904 20.6954 1.55982C21.8431 2.22273 22.5216 3.16044 22.3718 3.42107C22.3576 3.44656 22.2333 3.65904 22.2333 3.65904C22.4029 3.79502 22.9287 3.7157 23.0559 3.54855C23.2905 3.23409 23.6496 2.33888 21.1421 0.843077Z" fill="#616161"/>
<path d="M8.79172 14.1377C9.58044 12.7665 11.7911 12.5625 13.7304 13.6844C15.6696 14.8063 16.6025 16.8233 15.8166 18.1945C15.0279 19.5656 12.6929 19.9877 10.7508 18.8659C8.81151 17.7469 8.00301 15.5088 8.79172 14.1377Z" fill="#BDBDBD"/>
<path d="M11.8594 18.6176C11.8594 18.6176 12.0686 18.3059 12.9845 18.2181C13.9032 18.1303 14.3867 18.7224 14.3867 18.7224L13.8552 21.9689C13.8552 21.9689 13.5471 22.2551 12.8969 22.2352C12.2467 22.2154 12.0007 21.8726 12.0007 21.8726L11.8594 18.6176Z" fill="#757575"/>
<path d="M8.72376 14.937C8.72376 14.937 9.24957 14.9087 9.68209 15.7246C10.1768 16.6566 9.67644 17.2827 9.67644 17.2827L6.76187 18.3224C6.76187 18.3224 6.36045 18.2006 6.04949 17.6283C5.73852 17.0532 5.91097 16.6708 5.91097 16.6708L8.72376 14.937Z" fill="#757575"/>
<path d="M18.4017 5.55843C16.5667 4.52138 15.4074 4.2777 14.8589 4.22954C14.6412 4.21253 14.4348 4.32021 14.3273 4.51005L8.79688 14.1325C8.79688 14.1325 10.1654 14.2997 12.5517 15.6795C14.9381 17.0566 15.8202 18.1872 15.8202 18.1872L21.3563 8.55623C21.4638 8.36922 21.4553 8.14254 21.3365 7.9612C21.0312 7.50218 20.248 6.60114 18.4017 5.55843Z" fill="#E0E0E0"/>
<path d="M11 14.3801C11 14.3801 15.8962 5.88122 16.2524 5.47327C16.6058 5.06533 17.9429 5.60642 17.7338 6.0002C17.5246 6.39399 12.6566 15.0912 12.6566 15.0912C11.6869 14.4566 11 14.3801 11 14.3801Z" fill="#F5F5F5"/>
<path d="M21.1907 25.2596C21.5922 24.6419 22.5733 22.8058 22.3471 19.8732C21.9965 15.2943 18.3124 13.8323 18.3124 13.8323L17.9844 14.4018C20.9815 16.3767 22.8391 19.808 19.5338 24.5966C19.5338 24.5966 17.6281 24.1631 15.6008 25.5685C13.599 26.9569 12.9911 29.6118 10.5312 30.6829H12.2984C12.2984 30.6829 13.4407 30.7225 14.6621 28.7079C15.8836 26.6934 16.5537 25.7073 18.6007 25.3531C20.6478 24.9989 22.4206 26.6565 22.4206 26.6565C22.4206 26.6565 22.1464 25.8915 21.1907 25.2596Z" fill="#94D1E0"/>
<path d="M12.9884 22.0377C13.3272 22.0377 13.6019 21.9502 13.6019 21.8422C13.6019 21.7342 13.3272 21.6467 12.9884 21.6467C12.6496 21.6467 12.375 21.7342 12.375 21.8422C12.375 21.9502 12.6496 22.0377 12.9884 22.0377Z" fill="#81D4FA"/>
<path d="M19.2743 14.3328C20.4031 14.3328 21.3182 13.4158 21.3182 12.2846C21.3182 11.1534 20.4031 10.2363 19.2743 10.2363C18.1455 10.2363 17.2305 11.1534 17.2305 12.2846C17.2305 13.4158 18.1455 14.3328 19.2743 14.3328Z" fill="#424242"/>
<path d="M19.7005 13.6388C20.4671 13.6388 21.0885 13.016 21.0885 12.2478C21.0885 11.4796 20.4671 10.8568 19.7005 10.8568C18.9339 10.8568 18.3125 11.4796 18.3125 12.2478C18.3125 13.016 18.9339 13.6388 19.7005 13.6388Z" fill="#BDBDBD"/>
<path d="M18.7258 10.9106C17.6742 11.6018 18.1802 12.8597 18.1802 12.8597L17.6657 12.9787C17.4057 12.565 17.3887 12.0069 17.547 11.5508C17.6827 11.1712 17.906 10.8596 18.4544 10.616L18.7258 10.9106Z" fill="#757575"/>
<path d="M19.0574 1.3388L17.3867 4.48621L18.2546 4.829L20.0129 1.59376C19.3656 1.21981 19.0574 1.3388 19.0574 1.3388Z" fill="#94D1E0"/>
</svg>
