<svg width="42" height="34" viewBox="0 0 42 34" fill="none" xmlns="http://www.w3.org/2000/svg">
<path d="M21.0656 9.97008C21.0656 9.97008 1.02357 12.0464 1.10572 14.053C1.17076 15.6583 0.729183 21.151 5.24078 26.7694C8.19831 30.451 13.3808 34 21.8529 34C30.1846 34 34.7613 30.0776 37.6127 25.8342C41.2754 20.3763 41.0939 15.257 41.0939 13.9867C41.0905 11.4427 25.4642 8.96854 21.0656 9.97008Z" fill="#D5D5D5"/>
<path d="M22.1017 5.39158C22.1017 5.39158 20.7496 4.48775 19.5138 4.60291C18.2781 4.72156 17.6996 5.46835 17.6996 5.46835L13.8281 15.2883L17.9461 19.9715L20.6332 21.8699L25.8328 21.7373L28.1297 5.43695L22.1017 5.39158Z" fill="#307D31"/>
<path d="M22.3712 7.78895C22.3712 7.78895 21.4299 6.17323 21.3169 4.79131C21.204 3.4094 22.2651 2.61375 22.8299 2.61375C24.2129 2.61375 24.3703 3.48617 25.1987 3.4094C26.0271 3.33263 26.2941 2.58583 26.5166 1.4482C26.7425 0.289622 27.7181 -0.362949 28.6046 0.212849C29.457 0.767708 29.1558 2.40786 29.1558 2.40786C29.1558 2.40786 29.8335 1.56336 30.59 2.17754C31.2609 2.72542 31.0419 4.40745 31.0419 4.40745C31.0419 4.40745 32.5138 2.67656 33.7563 3.52456C34.9989 4.37255 34.0576 7.28993 34.0576 7.28993L33.6434 9.9037L26.5576 7.13638C26.5576 7.13638 26.1435 6.13833 24.6339 6.25349C23.1277 6.36865 22.3712 7.78895 22.3712 7.78895Z" fill="#58A12F"/>
<path d="M14.7932 14.7089C14.7932 14.7089 16.0597 12.0881 18.8153 12.964C21.7044 13.8818 21.1806 16.7189 21.1806 16.7189C21.1806 16.7189 21.92 16.1675 22.7861 16.0908C23.6521 16.014 24.7098 16.1675 24.7098 16.1675L24.5729 14.646C24.5729 14.646 22.7347 14.8938 21.6188 13.5538C20.1195 11.7496 21.1293 9.67325 21.1293 9.67325L21.3929 8.3681L18.7537 6.63722L16.9429 4.25377C16.9429 4.25377 16.3404 2.91024 14.7179 2.83347C13.0954 2.75669 12.332 3.92225 12.332 3.92225C12.332 3.92225 8.85762 2.89977 7.08448 4.43523C5.8864 5.47516 6.1979 7.17812 6.1979 7.17812C6.1979 7.17812 5.35583 7.68761 3.90103 6.4418C3.25407 5.88694 1.98754 6.30919 1.79927 7.34912C1.611 8.38555 2.01492 9.68023 2.01492 9.68023L0.847656 10.4096L4.80472 14.5588L14.7932 14.7089Z" fill="#58A12F"/>
<path d="M23.577 13.7842C23.577 13.7842 21.9716 13.8784 20.7496 10.9785C20.017 9.2406 20.5305 5.86956 22.2591 6.21155C23.6147 6.48026 23.4264 8.82533 24.3712 9.01726C24.8401 9.11148 25.8807 6.59542 28.1023 6.44187C29.9097 6.31624 32.2853 8.74855 32.2853 8.74855C32.2853 8.74855 33.3396 7.98082 33.4526 7.71212C33.5655 7.44341 33.7538 6.40698 34.9245 6.48375C36.2218 6.5675 36.0541 8.0227 36.0541 8.0227C36.0541 8.0227 37.6013 7.40851 38.7309 7.98431C39.9461 8.60548 39.8605 9.79197 39.8605 9.79197C39.8605 9.79197 40.9525 8.60199 41.8219 9.21617C42.6914 9.83035 40.2405 14.7334 37.9025 17.1936C35.5646 19.6538 32.5386 19.4898 32.5386 19.4898L23.577 13.7842Z" fill="#86C82C"/>
<path d="M8.76849 5.89061L8.48438 5.32877C8.48438 5.32877 9.35041 4.18764 11.281 4.50171C13.3999 4.84719 13.6121 6.35124 13.6121 6.35124C13.6121 6.35124 12.5202 6.7735 12.4859 6.72115C12.4517 6.66881 11.4282 5.57304 11.4282 5.57304L9.40176 5.64284L8.76849 5.89061Z" fill="#D2608C"/>
<path d="M8.96763 6.31616C8.96763 6.31616 9.95347 5.84157 10.9222 6.05444C11.8909 6.26731 12.1168 7.05947 12.1168 7.05947L13.0171 6.68956C13.0171 6.68956 12.4489 5.44723 11.1105 5.20644C9.64197 4.94123 8.73828 5.84506 8.73828 5.84506L8.96763 6.31616Z" fill="white"/>
<path d="M8.65234 7.76089C8.65234 7.76089 11.8016 6.85008 13.0065 6.24288C14.9371 5.26926 16.6144 4.39335 17.1039 4.05834C17.364 3.88036 17.5455 3.67796 17.8946 3.75124C18.2438 3.82453 21.3827 10.1897 16.2652 12.5069C14.1943 13.4456 11.9693 13.7631 11.9693 13.7631L8.77215 11.0098L8.65234 7.76089Z" fill="#FE2A19"/>
<path d="M9.7407 8.6858C9.66539 8.91262 11.3495 12.1825 14.8856 10.8459C18.2128 9.58962 17.1208 5.57649 16.912 5.43341C16.7751 5.34268 15.1971 6.23255 13.4924 7.00726C11.7124 7.81338 9.80231 8.50433 9.7407 8.6858Z" fill="#CB1C35"/>
<path d="M12.2696 9.32438C12.8516 9.55819 13.6217 9.31392 14.3988 8.97193C15.1142 8.65785 15.9973 8.1693 16.0213 7.64236C16.0453 7.11891 14.789 6.53264 14.4604 6.54311C14.1352 6.55707 12.6701 7.21313 12.475 7.53069C12.2799 7.85174 11.8452 9.15339 12.2696 9.32438Z" fill="#FF5F5D"/>
<path d="M11.8756 9.31046C11.547 9.22322 11.2457 9.55474 11.1636 9.94209C11.0575 10.4481 11.5367 10.5563 11.7558 10.3713C12.0946 10.0852 12.1871 9.39072 11.8756 9.31046Z" fill="#F7CA76"/>
<path d="M13.6421 9.58267C13.3169 9.59314 13.1937 10.1236 13.3066 10.5039C13.4504 11.003 13.9399 10.8704 14.0255 10.5947C14.1829 10.1061 13.9639 9.5722 13.6421 9.58267Z" fill="#F7CA76"/>
<path d="M15.3903 8.69979C15.1541 8.91266 15.3834 9.38726 15.6983 9.60013C16.1091 9.8793 16.3932 9.4745 16.2905 9.21277C16.1091 8.74864 15.623 8.49041 15.3903 8.69979Z" fill="#F7CA76"/>
<path d="M16.0239 7.17824C16.041 7.48882 16.5237 7.61445 16.8625 7.51325C17.3075 7.38064 17.174 6.90953 16.9242 6.82229C16.4792 6.66526 16.0068 6.87115 16.0239 7.17824Z" fill="#F7CA76"/>
<path d="M15.5616 15.3789C15.8731 14.5204 17.5059 13.1455 19.2312 14.4123C20.9119 15.6476 20.1417 17.6786 19.4229 18.3451C18.6424 19.071 17.0883 19.2839 16.2154 18.2998C15.3426 17.3157 15.144 16.527 15.5616 15.3789Z" fill="#E9FCAE"/>
<path d="M5.48429 16.562C5.57329 16.4504 5.79579 16.1642 5.65887 15.6617C5.42952 14.8207 4.8476 13.7843 3.73511 12.4477C1.79423 10.1166 0.832349 9.50939 0.216198 10.1724C-0.437607 10.8773 0.48662 12.5245 1.7155 14.0355C2.94438 15.5465 4.92633 17.267 5.48429 16.562Z" fill="#307D31"/>
<path d="M4.82044 15.1313C4.63217 15.2883 3.60867 14.5624 2.55095 13.2887C1.49322 12.015 0.716185 10.9436 1.05164 10.6819C1.4761 10.3504 3.01306 11.994 3.41698 12.5629C3.8209 13.1317 5.24147 14.7788 4.82044 15.1313Z" fill="#E9FCAE"/>
<path d="M27.0586 8.48336L27.6371 7.91454C27.6371 7.91454 29.5095 10.4515 30.9814 9.32437C32.7511 7.97038 31.002 5.77537 31.002 5.77537L31.7722 5.38452L32.7922 6.99327L32.8675 9.26854L31.1183 10.818C31.1183 10.818 29.1946 10.818 29.0405 10.5842C28.8865 10.3469 27.0586 8.48336 27.0586 8.48336Z" fill="white"/>
<path d="M26.4531 9.01392L27.2165 8.32297C27.2165 8.32297 29.3764 11.4462 31.533 9.82353C33.6005 8.26364 31.7007 5.41955 31.7007 5.41955L32.464 4.9624C32.464 4.9624 33.977 6.70375 33.378 8.98252C32.8953 10.8111 31.1051 11.6661 29.6434 11.352C27.35 10.8565 26.4531 9.01392 26.4531 9.01392Z" fill="#D2608C"/>
<path d="M29.6406 13.0304C29.6406 13.0304 29.7022 11.5787 31.6945 9.95952C33.6867 8.3403 35.3606 8.78349 35.9185 9.26856C36.4799 9.75711 37.1474 11.5508 35.631 13.4981C34.9053 14.4263 34.3439 14.5589 33.5532 14.4856C32.629 14.3984 31.0235 13.5818 31.0235 13.5818L29.6406 13.0304Z" fill="#2C7B2E"/>
<path d="M35.1627 9.91405C34.3309 9.35221 32.6159 10.2421 31.7327 11.0831C30.7914 11.9834 30.5312 13.0024 30.5312 13.0024L32.5885 13.7422C32.5885 13.7422 33.7455 13.7143 34.5191 12.814C35.6727 11.4739 35.7857 10.3363 35.1627 9.91405Z" fill="#E0FEAC"/>
<path d="M24.0047 10.6749C23.7172 10.8215 22.6423 12.1057 22.9607 14.6601C23.2927 17.3018 25.1446 19.0397 28.2117 19.2665C32.1379 19.5527 34.3458 16.6213 34.647 16.0909C34.9483 15.5605 35.5507 14.3949 35.1297 14.0076C34.7086 13.6202 32.0832 13.4562 29.0572 12.4965C25.6581 11.4147 24.6448 10.3469 24.0047 10.6749Z" fill="#FE2A19"/>
<path d="M25.3562 12.1615C24.9283 12.3779 24.5073 16.2549 27.8653 17.3891C30.7578 18.3662 32.9075 15.1208 32.6884 14.688C32.4693 14.2553 31.1651 14.4019 29.012 13.6237C26.8555 12.842 25.6917 11.994 25.3562 12.1615Z" fill="#CB1C35"/>
<path d="M26.8288 14.2204C26.9281 14.7333 27.3971 15.358 28.4616 15.8221C29.3071 16.192 30.2142 16.028 30.5976 15.864C30.981 15.7 30.8338 14.1436 30.6592 14.0982C30.115 13.9551 28.4651 13.3793 27.9619 13.1735C27.6367 13.0408 26.7227 13.669 26.8288 14.2204Z" fill="#FE6261"/>
<path d="M26.6341 14.2587C26.617 13.9377 26.1069 13.8295 25.7509 13.9482C25.282 14.1017 25.4189 14.5798 25.6825 14.6601C26.1514 14.8066 26.6512 14.5763 26.6341 14.2587Z" fill="#F7CA76"/>
<path d="M27.6683 15.5988C27.4219 15.3999 27.0043 15.7175 26.8571 16.0699C26.662 16.5306 27.1035 16.7434 27.3363 16.5934C27.7539 16.3282 27.9114 15.7942 27.6683 15.5988Z" fill="#F7CA76"/>
<path d="M22.782 21.3254C22.782 21.3254 22.8744 20.6938 22.4226 19.7795C22.2275 19.3852 21.4573 18.6 22.0358 17.923C22.6143 17.2495 24.5723 17.6718 25.2055 17.8113C25.8388 17.9509 26.8589 17.923 27.2457 17.5287C27.6325 17.1343 27.9063 15.5047 29.3132 15.1103C30.7646 14.7055 31.4492 16.0107 32.0414 16.5446C32.5104 16.9668 33.1984 17.1343 34.1637 16.7958C35.129 16.4573 34.8517 17.752 34.8517 17.752L33.7221 20.31L22.782 21.3254Z" fill="#86C82C"/>
<path d="M5.33542 17.7309C5.33542 17.7309 4.31535 15.7348 3.6547 12.6708C2.99405 9.60691 3.04539 8.60188 3.73685 8.37156C4.92123 7.97722 5.72223 9.4394 6.13642 9.35565C6.55061 9.2719 6.63276 7.49914 7.84453 7.21996C9.05629 6.9373 9.52525 8.06447 10.1311 9.07647C10.737 10.0885 11.8666 12.786 11.8666 12.786C11.8666 12.786 12.9415 12.28 13.8794 12.786C14.8173 13.292 15.7278 14.81 16.1112 15.8779C16.498 16.9457 16.8746 17.8844 16.8746 17.8844C16.8746 17.8844 18.1993 18.1392 19.4179 18.886C20.7974 19.7305 21.458 21.3881 21.458 21.3881L14.6804 21.8313C14.6804 21.8313 6.46503 18.8232 6.38288 18.6836C6.2973 18.544 5.24985 17.6157 5.33542 17.7309Z" fill="#86C82C"/>
<path d="M6.40268 18.8268C6.40268 18.8268 5.98849 17.8147 6.12541 16.5236C6.26233 15.2324 6.85452 14.4088 7.84721 14.4088C8.62082 14.4088 9.95582 14.9218 11.2532 16.7748C12.5505 18.6278 12.7148 20.3168 12.7148 20.3168L7.22764 19.5875L6.40268 18.8268Z" fill="#2D792A"/>
<path d="M6.75761 18.4604C6.75761 18.4604 6.22019 16.2304 6.89453 15.707C7.36349 15.3406 8.07891 15.4557 9.37625 16.9144C10.855 18.5825 11.1665 20.0342 11.1665 20.0342L6.75761 18.4604Z" fill="#E7FCAE"/>
<path d="M13.4102 20.582L14.0434 20.6379C14.0434 20.6379 14.4028 18.9244 15.8063 18.2195C17.1584 17.546 18.5892 18.1078 18.5892 18.1078L18.8083 17.2913L17.3193 16.6736L15.3065 17.0958C15.3065 17.0958 13.4855 18.7814 13.4855 18.8651C13.4855 18.9489 13.4102 20.4983 13.4102 20.582Z" fill="white"/>
<path d="M12.3242 20.8299C12.3242 20.7462 12.4919 18.3871 14.4465 17.0645C16.9282 15.386 18.9821 16.8133 18.9821 16.8133L18.7253 17.6194C18.7253 17.6194 16.5894 16.6667 14.9429 18.1045C13.5908 19.284 13.2895 21.0567 13.2895 21.0567L12.3242 20.8299Z" fill="#D2608C"/>
<path d="M22.2951 32.639C34.1971 32.6006 38.2363 22.7981 39.1982 19.1689C39.8281 16.7924 40.054 14.6323 40.054 14.6323L35.8778 19.4271C35.8778 19.4271 22.7812 21.9885 22.3431 21.9885C21.9049 21.9885 14.6685 21.3953 14.6685 21.3953L7.23366 19.5841L2.13672 14.552C2.13672 14.552 2.23256 17.6822 3.05752 20.0587C3.69421 21.8908 7.38085 32.6879 22.2951 32.639Z" fill="#F6F6F6"/>
<path d="M21.1303 22.784C26.8126 22.8573 35.117 21.3498 38.2285 18.1777C40.2207 16.1467 40.0736 14.3146 40.0736 14.3146C40.0736 14.3146 36.4793 21.2346 21.079 21.0008C8.01657 20.8019 2.12891 14.5344 2.12891 14.5344C2.12891 14.5344 2.47806 16.691 4.08005 18.0311C7.86938 21.1892 13.5517 22.6828 21.1303 22.784Z" fill="white"/>
<path d="M6.21634 22.2222C5.54884 22.8608 6.27111 24.4835 7.90048 25.9457C9.52986 27.4079 11.1592 28.5804 11.9739 27.7499C12.8194 26.8879 10.8238 24.829 9.69759 23.8275C8.5714 22.8259 7.0858 21.3917 6.21634 22.2222Z" fill="white"/>
</svg>
