<svg width="34" height="34" viewBox="0 0 34 34" fill="none" xmlns="http://www.w3.org/2000/svg">
<path d="M19.8528 31.5816C23.0774 34.8062 28.3564 34.8062 31.5838 31.5816C34.8084 28.357 34.8084 23.078 31.5838 19.8506L22.8677 11.1345L11.1367 22.8655L19.8528 31.5816Z" fill="#F44336"/>
<path d="M22.8655 11.1345L14.1495 2.41846C10.9248 -0.806153 5.6459 -0.806153 2.41846 2.41846C-0.806152 5.64307 -0.806152 10.922 2.41846 14.1495L11.1345 22.8655L22.8655 11.1345Z" fill="#FDD835"/>
<path d="M11.7318 23.4658L23.4609 11.7367L22.86 11.1357L11.1308 22.8648L11.7318 23.4658Z" fill="#C62828"/>
<g opacity="0.65">
<path opacity="0.65" d="M18.5358 9.13708C21.9814 12.8916 28.2323 19.9755 28.2323 19.9755C29.0427 20.7151 30.1563 22.6221 29.4281 23.2795C28.6517 23.9822 26.8439 22.5002 26.0334 21.7607L12.8092 9.31843C12.0016 8.57886 9.29836 6.18449 9.8254 4.49851C10.82 1.31641 14.6991 4.95472 18.5358 9.13708Z" fill="white"/>
</g>
</svg>
