<svg width="34" height="34" viewBox="0 0 34 34" fill="none" xmlns="http://www.w3.org/2000/svg">
<path d="M15.9277 26.3769L15.8398 14.0442L17.4179 14.1335L17.5057 27.045L15.9277 26.3769Z" fill="#6AA5AD"/>
<path d="M12.3143 28.7063C11.3878 28.6602 10.9147 29.3715 11.0337 30.7019C11.1527 32.0323 11.9233 34.0509 14.6034 33.999C17.6972 33.9386 17.9324 31.7529 17.8814 29.3312C17.8474 27.6466 17.8814 26.3134 17.7935 26.2529C17.7057 26.1924 15.5554 26.1348 15.4364 26.2558C15.3174 26.3767 15.4052 29.0087 15.3769 29.6422C15.3485 30.2757 15.4562 31.5485 14.306 31.5168C13.4135 31.4909 13.2945 30.7307 13.2945 30.3678C13.2974 30.0079 13.5042 28.7668 12.3143 28.7063Z" fill="#3F7377"/>
<path d="M17.305 5.25385L16.8828 3.59778C16.8828 3.59778 22.7966 3.53154 27.2029 6.46638C34.7772 11.5123 33.9412 17.1459 33.9412 17.1459C33.9412 17.1459 32.2977 14.8187 28.6877 14.9829C25.0777 15.1471 23.7572 18.4218 23.7572 18.4218L17.305 5.25385Z" fill="#5547F4"/>
<path d="M13.636 8.99817L16.5886 3.59794C16.5886 3.59794 10.7655 2.86639 5.59414 6.94752C-0.97987 12.1375 0.0600707 17.8257 0.0600707 17.8257C0.0600707 17.8257 2.565 15.4007 4.61371 15.585C6.66242 15.7693 9.22969 18.2894 9.22969 18.2894L13.636 8.99817Z" fill="#937EF3"/>
<path d="M23.7592 18.1886C23.7592 18.1886 23.4305 12.6818 22.1724 9.85061C19.8772 4.6808 16.7177 3.6814 16.7177 3.6814C16.7177 3.6814 12.9149 5.58228 10.9144 10.2682C8.91385 14.9542 9.25672 18.2634 9.25672 18.2634C9.25672 18.2634 12.334 14.6892 16.814 15.1817C21.294 15.6742 23.7592 18.1886 23.7592 18.1886Z" fill="#6E62ED"/>
<path d="M23.7418 18.8994C24.2065 18.8706 26.0625 15.6282 28.9755 15.657C32.9284 15.6973 33.4385 17.785 33.8522 17.569C34.3084 17.3329 33.6368 16.4662 33.0389 15.8384C32.1945 14.9515 30.8429 14.4159 28.7431 14.5541C25.6857 14.7557 23.7135 17.5115 23.7135 17.5115C23.7135 17.5115 21.1065 14.6203 16.5359 14.6203C12.1154 14.6203 9.26196 17.8167 9.26196 17.8167C9.26196 17.8167 7.81681 15.2193 4.30028 15.1559C1.19463 15.1041 -0.148514 17.6468 0.0696751 17.8685C0.287864 18.0903 1.9427 16.0745 4.26344 16.1753C7.45411 16.3135 8.57056 19.0232 9.18262 19.0376C9.79185 19.052 12.1749 15.7837 16.5926 15.8614C21.336 15.9449 23.3054 18.9282 23.7418 18.8994Z" fill="#004DAE"/>
<path d="M15.618 3.81871C15.5783 3.66033 15.6123 1.54382 15.5982 1.08884C15.5783 0.415015 16.1421 -0.0140466 16.6493 0.000351456C17.3122 0.0205087 17.5445 0.613708 17.5644 1.02837C17.5842 1.44303 17.587 3.76976 17.5842 3.79855C17.5587 4.04044 17.2102 4.27081 16.5926 4.27369C16.1421 4.27369 15.6718 4.03756 15.618 3.81871Z" fill="#6CA4AB"/>
</svg>
