<svg width="272" height="136" viewBox="0 0 272 136" fill="none" xmlns="http://www.w3.org/2000/svg">
<path d="M55.04 111V92.568H5.376V85.272L50.816 20.504H64.256V84.12H75.136V92.568H64.256V111H55.04ZM16.384 84.12H55.04V28.824L16.384 84.12Z" fill="#1F1F1F"/>
<path d="M163.122 32.9644V103.035C163.122 118.051 151.028 130.132 135.997 130.132C120.965 130.132 108.871 118.051 108.871 103.035V32.9644C108.871 17.9491 120.965 5.86792 135.997 5.86792C143.426 5.86792 150.164 8.97453 155.175 13.807C160.012 18.8121 163.122 25.543 163.122 32.9644Z" fill="#BB974D"/>
<path d="M136 5.86801C143.429 5.86801 150.168 8.97462 155.178 13.8071C160.016 18.6396 163.126 25.5431 163.126 32.9645V103.036C163.126 118.051 151.031 130.132 136 130.132C120.969 130.132 108.874 118.051 108.874 103.036V32.9645C108.874 17.9492 120.969 5.86801 136 5.86801ZM136 0C131.508 0 127.188 0.862944 123.215 2.58883C119.241 4.31472 115.785 6.55836 112.675 9.66496C109.565 12.7716 107.319 16.2233 105.592 20.1929C103.864 24.335 103 28.6497 103 32.9645V103.036C103 107.523 103.864 111.838 105.592 115.807C107.319 119.777 109.565 123.228 112.675 126.335C115.785 129.442 119.241 131.685 123.215 133.411C127.361 135.137 131.681 136 136 136C140.492 136 144.812 135.137 148.785 133.411C152.759 131.685 156.215 129.442 159.325 126.335C162.435 123.228 164.681 119.777 166.408 115.807C168.136 111.665 169 107.35 169 103.036V32.9645C169 28.4771 168.136 24.1624 166.408 20.1929C164.681 16.2233 162.435 12.7716 159.325 9.66496C156.215 6.55836 152.759 4.31472 148.785 2.58883C144.812 0.862944 140.492 0 136 0Z" fill="#245435"/>
<path d="M163.122 68V103.036C163.122 118.051 151.028 130.132 135.997 130.132C120.965 130.132 108.871 118.051 108.871 103.036V68H163.122Z" fill="#FFFDFD"/>
<path d="M163.128 32.9644V67.9999H158.117C158.117 67.9999 158.981 46.5989 158.117 29.34C157.253 12.0811 136.002 5.86792 136.002 5.86792C143.431 5.86792 150.17 8.97453 155.18 13.807C160.018 18.8121 163.128 25.543 163.128 32.9644Z" fill="#E0BE82"/>
<g opacity="0.5">
<path d="M163.128 103.036V68H158.117C158.117 68 158.981 89.401 158.117 106.66C157.253 123.919 136.002 130.132 136.002 130.132C143.431 130.132 150.17 127.025 155.18 122.193C160.018 117.36 163.128 110.457 163.128 103.036Z" fill="#E2E2E2"/>
</g>
<path d="M246.04 111V92.568H196.376V85.272L241.816 20.504H255.256V84.12H266.136V92.568H255.256V111H246.04ZM207.384 84.12H246.04V28.824L207.384 84.12Z" fill="#1F1F1F"/>
</svg>
