<svg width="164" height="46" viewBox="0 0 164 46" fill="none" xmlns="http://www.w3.org/2000/svg">
<g clip-path="url(#clip0_1_4285)">
<path d="M20.364 11.0285V34.9721C20.364 40.1029 16.2196 44.2311 11.0687 44.2311C5.91784 44.2311 1.77344 40.1029 1.77344 34.9721V11.0285C1.77344 5.89773 5.91784 1.76953 11.0687 1.76953C13.6146 1.76953 15.9236 2.83107 17.6406 4.48236C19.2983 6.19261 20.364 8.49261 20.364 11.0285Z" fill="#BB974D"/>
<path d="M11.07 1.76928C13.6159 1.76928 15.9249 2.83083 17.6419 4.48211C19.2996 6.13339 20.3653 8.49236 20.3653 11.0283V34.9718C20.3653 40.1026 16.2209 44.2308 11.07 44.2308C5.91912 44.2308 1.77472 40.1026 1.77472 34.9718V11.0283C1.77472 5.89749 5.91912 1.76928 11.07 1.76928ZM11.07 -0.23584C9.53067 -0.23584 8.05053 0.059032 6.6888 0.648776C5.32706 1.23852 4.14294 2.00518 3.07724 3.06672C2.01154 4.12826 1.24186 5.30775 0.649805 6.66416C0.0577476 8.07954 -0.238281 9.5539 -0.238281 11.0283V34.9718C-0.238281 36.5052 0.0577476 37.9795 0.649805 39.336C1.24186 40.6924 2.01154 41.8718 3.07724 42.9334C4.14294 43.9949 5.32706 44.7616 6.6888 45.3513C8.10974 45.9411 9.58988 46.2359 11.07 46.2359C12.6094 46.2359 14.0895 45.9411 15.4513 45.3513C16.813 44.7616 17.9971 43.9949 19.0628 42.9334C20.1285 41.8718 20.8982 40.6924 21.4902 39.336C22.0823 37.9206 22.3783 36.4462 22.3783 34.9718V11.0283C22.3783 9.49492 22.0823 8.02057 21.4902 6.66416C20.8982 5.30775 20.1285 4.12826 19.0628 3.06672C17.9971 2.00518 16.813 1.23852 15.4513 0.648776C14.0895 0.059032 12.6094 -0.23584 11.07 -0.23584Z" fill="#245435"/>
<path d="M20.364 23V34.9718C20.364 40.1026 16.2196 44.2308 11.0687 44.2308C5.91784 44.2308 1.77344 40.1026 1.77344 34.9718V23H20.364Z" fill="#FFFDFD"/>
<path d="M20.3656 11.0285V23.0003H18.6487C18.6487 23.0003 18.9447 15.6875 18.6487 9.79005C18.3526 3.89261 11.0703 1.76953 11.0703 1.76953C13.6162 1.76953 15.9252 2.83107 17.6422 4.48236C19.2999 6.19261 20.3656 8.49261 20.3656 11.0285Z" fill="#E0BE82"/>
<g opacity="0.5">
<path d="M20.3656 34.9718V23H18.6487C18.6487 23 18.9447 30.3128 18.6487 36.2103C18.3526 42.1077 11.0703 44.2308 11.0703 44.2308C13.6162 44.2308 15.9252 43.1692 17.6422 41.5179C19.2999 39.8667 20.3656 37.5077 20.3656 34.9718Z" fill="#E2E2E2"/>
</g>
<path d="M32.2671 32.4358H30.6094V31.7871H34.6354V32.4358H32.9776V39.041H32.2671V32.4358Z" fill="#BB974D"/>
<path d="M34.8131 33.6744H35.5236V34.6179C36.1748 33.6744 37.1221 33.5564 37.5958 33.5564C39.4904 33.5564 40.4377 35.0308 40.4377 36.3872C40.4377 37.9795 39.1943 39.159 37.5366 39.159C36.234 39.159 35.7012 38.3333 35.4644 38.0385V40.9282H34.7539V33.6744H34.8131ZM35.4644 36.3872C35.4644 37.5667 36.3525 38.5102 37.5366 38.5102C38.7207 38.5102 39.668 37.5667 39.668 36.3872C39.668 35.1487 38.7207 34.2051 37.5366 34.2051C36.3525 34.2051 35.4644 35.1487 35.4644 36.3872Z" fill="#BB974D"/>
<path d="M42.036 36.6231C42.0952 37.6846 42.9241 38.5102 44.1082 38.5102C44.9371 38.5102 45.6476 38.0385 46.0028 37.2718H46.7725C46.3581 38.4513 45.3516 39.159 44.1674 39.159C42.5689 39.159 41.3848 37.9795 41.3848 36.3872C41.3848 35.0897 42.3321 33.5564 44.1674 33.5564C46.1804 33.5564 46.9501 35.2667 46.9501 36.6231H42.036ZM46.062 35.9743C45.8844 34.9128 44.9963 34.2051 44.1082 34.2051C43.1017 34.2051 42.2137 34.9128 42.036 35.9743H46.062Z" fill="#BB974D"/>
<path d="M48.6089 33.6743V35.9743H51.6284V33.6743H52.3389V39.041H51.6284V36.623H48.6089V39.041H47.8984V33.6743H48.6089Z" fill="#BB974D"/>
<path d="M58.6136 38.3923H59.1464V40.3974H58.4359V39.041H53.8179V40.3974H53.1074V38.3923H53.6403L55.7125 33.6743H56.4821L58.6136 38.3923ZM57.7847 38.3923L56.0677 34.5L54.3507 38.3923H57.7847Z" fill="#BB974D"/>
<path d="M64.7724 36.3281C64.7724 37.9204 63.5291 39.0999 61.9897 39.0999C60.3911 39.0999 59.207 37.9204 59.207 36.3281C59.207 34.7358 60.4504 33.4973 61.9897 33.4973C63.5883 33.5563 64.7724 34.7358 64.7724 36.3281ZM59.9175 36.3281C59.9175 37.5666 60.8056 38.4512 61.9897 38.4512C63.1738 38.4512 64.0619 37.5076 64.0619 36.3281C64.0619 35.0896 63.1738 34.205 61.9897 34.205C60.8056 34.205 59.9175 35.1486 59.9175 36.3281Z" fill="#BB974D"/>
<path d="M67.7311 33.6743C68.9744 33.6743 69.3297 34.441 69.3297 35.0897C69.3297 35.6205 69.0337 36.0333 68.6192 36.2102C69.1521 36.3282 69.5073 36.8589 69.5073 37.5076C69.5073 38.3333 68.9152 39.041 67.7903 39.041H65.7773V33.6743H67.7311ZM66.547 35.9743H67.6719C68.264 35.9743 68.56 35.6205 68.56 35.1487C68.56 34.382 67.7903 34.382 67.6719 34.382H66.547V35.9743ZM66.547 38.3923H67.7311C68.56 38.3923 68.7968 37.8615 68.7968 37.5076C68.7968 37.2718 68.7376 36.623 67.7311 36.623H66.547V38.3923Z" fill="#BB974D"/>
<path d="M75.9013 36.3281C75.9013 37.9204 74.658 39.0999 73.1186 39.0999C71.5201 39.0999 70.3359 37.9204 70.3359 36.3281C70.3359 34.7358 71.5793 33.4973 73.1186 33.4973C74.7172 33.5563 75.9013 34.7358 75.9013 36.3281ZM71.0464 36.3281C71.0464 37.5666 71.9345 38.4512 73.1186 38.4512C74.3027 38.4512 75.1908 37.5076 75.1908 36.3281C75.1908 35.0896 74.3027 34.205 73.1186 34.205C71.9345 34.205 71.0464 35.1486 71.0464 36.3281Z" fill="#BB974D"/>
<path d="M78.6836 39.041L80.8742 36.2692L78.8612 33.7333H79.6901L81.7031 36.3871L79.5717 39.0999H78.6836V39.041ZM81.9991 39.041V33.6743H82.7096V39.041H81.9991ZM82.9464 36.3282L84.9594 33.6743H85.7883L83.7753 36.2102L85.9659 38.982H85.0778L82.9464 36.3282Z" fill="#BB974D"/>
<path d="M87.4468 33.6743V37.9794L90.6439 33.6743H91.3544V39.041H90.6439V34.7358L87.4468 39.041H86.7363V33.6743H87.4468Z" fill="#BB974D"/>
<path d="M95.6175 33.6743V34.323H94.2558V39.041H93.5453V34.323H92.1836V33.6743H95.6175Z" fill="#BB974D"/>
<path d="M97.0386 33.6743V37.9794L100.236 33.6743H100.946V39.041H100.236V34.7358L97.0386 39.041H96.3281V33.6743H97.0386Z" fill="#BB974D"/>
<path d="M105.15 34.9718C105.269 33.9102 106.157 33.5564 106.867 33.5564C107.637 33.5564 108.584 33.9102 108.584 34.9718C108.584 35.5025 108.347 36.0333 107.755 36.2692C108.407 36.4461 108.703 36.9769 108.703 37.6256C108.703 38.5692 107.933 39.2179 106.867 39.2179C105.506 39.2179 104.973 38.4513 104.973 37.5667H105.683C105.683 38.1564 106.098 38.5692 106.867 38.5692C107.815 38.5692 107.992 37.9205 107.992 37.6256C107.992 37.2128 107.815 36.682 106.867 36.682H106.394V35.9743H106.867C107.519 35.9743 107.815 35.5615 107.815 35.0897C107.815 34.6769 107.519 34.2641 106.867 34.2641C106.216 34.2641 105.92 34.6179 105.802 35.0308H105.15V34.9718Z" fill="#BB974D"/>
<path d="M114.741 38.3923H115.273V40.3974H114.563V39.041H109.945V40.3974H109.234V38.3923H109.767L111.839 33.6743H112.609L114.741 38.3923ZM113.912 38.3923L112.195 34.5L110.478 38.3923H113.912Z" fill="#BB974D"/>
<path d="M120.897 36.3281C120.897 37.9204 119.654 39.0999 118.115 39.0999C116.516 39.0999 115.332 37.9204 115.332 36.3281C115.332 34.7358 116.575 33.4973 118.115 33.4973C119.713 33.5563 120.897 34.7358 120.897 36.3281ZM116.043 36.3281C116.043 37.5666 116.931 38.4512 118.115 38.4512C119.299 38.4512 120.187 37.5076 120.187 36.3281C120.187 35.0896 119.299 34.205 118.115 34.205C116.931 34.205 116.043 35.1486 116.043 36.3281Z" fill="#BB974D"/>
<path d="M121.965 33.6744H122.675V34.6179C123.327 33.6744 124.274 33.5564 124.748 33.5564C126.642 33.5564 127.589 35.0308 127.589 36.3872C127.589 37.9795 126.346 39.159 124.688 39.159C123.386 39.159 122.853 38.3333 122.616 38.0385V40.9282H121.965V33.6744ZM122.616 36.3872C122.616 37.5667 123.504 38.5102 124.688 38.5102C125.872 38.5102 126.82 37.5667 126.82 36.3872C126.82 35.1487 125.872 34.2051 124.688 34.2051C123.504 34.2051 122.616 35.1487 122.616 36.3872Z" fill="#BB974D"/>
<path d="M134.042 36.3281C134.042 37.9204 132.799 39.0999 131.259 39.0999C129.661 39.0999 128.477 37.9204 128.477 36.3281C128.477 34.7358 129.72 33.4973 131.259 33.4973C132.858 33.5563 134.042 34.7358 134.042 36.3281ZM129.187 36.3281C129.187 37.5666 130.075 38.4512 131.259 38.4512C132.443 38.4512 133.331 37.5076 133.331 36.3281C133.331 35.0896 132.443 34.205 131.259 34.205C130.075 34.205 129.187 35.1486 129.187 36.3281Z" fill="#BB974D"/>
<path d="M137.003 33.6743C138.246 33.6743 138.601 34.441 138.601 35.0897C138.601 35.6205 138.305 36.0333 137.891 36.2102C138.424 36.3282 138.779 36.8589 138.779 37.5076C138.779 38.3333 138.187 39.041 137.062 39.041H135.049V33.6743H137.003ZM135.818 35.9743H136.943C137.535 35.9743 137.831 35.6205 137.831 35.1487C137.831 34.382 137.062 34.382 136.943 34.382H135.818V35.9743ZM135.818 38.3923H137.003C137.831 38.3923 138.068 37.8615 138.068 37.5076C138.068 37.2718 138.009 36.623 137.003 36.623H135.818V38.3923Z" fill="#BB974D"/>
<path d="M145.173 36.3281C145.173 37.9204 143.929 39.0999 142.39 39.0999C140.792 39.0999 139.607 37.9204 139.607 36.3281C139.607 34.7358 140.851 33.4973 142.39 33.4973C143.989 33.5563 145.173 34.7358 145.173 36.3281ZM140.318 36.3281C140.318 37.5666 141.206 38.4512 142.39 38.4512C143.574 38.4512 144.462 37.5076 144.462 36.3281C144.462 35.0896 143.574 34.205 142.39 34.205C141.206 34.205 140.318 35.1486 140.318 36.3281Z" fill="#BB974D"/>
<path d="M30.8444 5.48462H45.113V25.241H43.1V7.25385H32.7981V25.241H30.7852V5.48462H30.8444Z" fill="#245435"/>
<path d="M45.3504 25.418H42.9822V7.43084H33.0948V25.418H30.7266V5.24878H45.4096V25.418H45.3504ZM43.3374 25.0052H44.9359V5.66161H31.0818V25.0052H32.6804V7.07699H43.3966V25.0052H43.3374Z" fill="#245435"/>
<path d="M48.7852 5.48462H50.7982V8.84616H48.7852V5.48462ZM48.7852 10.6154H50.7982V25.241H48.7852V10.6154Z" fill="#245435"/>
<path d="M61.8094 10.6155V12.3847H56.1849V25.1822H54.1719V10.6155H61.8094Z" fill="#245435"/>
<path d="M76.3157 10.6155L67.8493 30.3719H65.7179L68.1453 24.5924L62.4023 10.6745H64.7706L69.3886 22.0565L74.1843 10.6745H76.3157V10.6155Z" fill="#245435"/>
<path d="M89.0451 25.2411H86.9137L81.7628 13.1514L76.6119 25.2411H74.4805L80.7563 10.6155H82.8285L89.0451 25.2411Z" fill="#245435"/>
<path d="M92.9518 10.6155V16.218H96.9186C100.885 16.218 101.892 19.0488 101.892 20.7591C101.892 22.4693 100.885 25.2411 96.9186 25.2411H90.998V10.6155H92.9518ZM92.9518 23.4129H96.8594C98.9316 23.4129 99.8789 22.1155 99.8789 20.7001C99.8789 19.2847 98.9316 17.9873 96.8594 17.9873H92.9518V23.4129Z" fill="#245435"/>
<path d="M106.333 10.6155V16.8078H114.563V10.6155H116.576V25.2411H114.563V18.636H106.333V25.2411H104.32V10.6155H106.333Z" fill="#245435"/>
<path d="M130.429 25.241H128.476V12.3846H124.509C124.094 12.3846 121.075 12.3846 121.075 15.5102C121.075 17.1615 122.022 18.4589 124.509 18.4589H126.522L121.667 25.241H119.417L123.384 20.0512C120.838 19.8743 119.121 17.9871 119.121 15.4512C119.121 12.9743 121.016 10.6743 124.509 10.6743H130.429V25.241Z" fill="#245435"/>
<path d="M139.666 13.1514H141.324L148.073 23.177V13.1514H149.257V25.1821H148.073L140.85 14.5667V25.1821H139.666V13.1514ZM152.869 13.1514C154.231 13.1514 155.296 14.2719 155.296 15.5693C155.296 16.9257 154.171 17.9873 152.869 17.9873C151.507 17.9873 150.441 16.8667 150.441 15.5693C150.441 14.2719 151.507 13.1514 152.869 13.1514ZM155.119 19.2257V20.3462H150.678V19.2257H155.119ZM152.869 17.1616C153.698 17.1616 154.408 16.4539 154.408 15.6283C154.408 14.8026 153.698 14.095 152.869 14.095C152.04 14.095 151.33 14.8026 151.33 15.6283C151.33 16.4539 152.04 17.1616 152.869 17.1616Z" fill="#245435"/>
<path d="M161.691 7.25385H158.316V5.48462H163.704V25.241H161.691V7.25385Z" fill="#245435"/>
</g>
<defs>
<clipPath id="clip0_1_4285">
<rect width="164" height="46" fill="white"/>
</clipPath>
</defs>
</svg>
