<svg width="114" height="46" viewBox="0 0 114 46" fill="none" xmlns="http://www.w3.org/2000/svg">
<path d="M113.303 23.0033C113.303 29.1608 110.799 34.7344 106.748 38.7722C102.696 42.8099 97.1035 45.3049 90.9252 45.3049H23.0747C10.7179 45.3049 0.697266 35.3182 0.697266 23.0033C0.697266 16.839 3.20069 11.2653 7.25219 7.22753C11.3037 3.18976 16.8963 0.694824 23.0747 0.694824H90.9252C103.282 0.694824 113.303 10.6815 113.303 23.0033Z" fill="white"/>
<path d="M90.9252 0H23.0747C10.3484 0 0 10.3203 0 23.0035C0 35.6797 10.3484 46 23.0747 46H90.9252C103.652 46 114 35.6797 114 23.0035C114 10.3203 103.652 0 90.9252 0ZM90.9252 45.305H23.0747C10.718 45.305 0.697333 35.3183 0.697333 23.0035C0.697333 16.8391 3.20076 11.2654 7.25226 7.22768C11.3038 3.18991 16.8964 0.694969 23.0747 0.694969H90.9252C103.282 0.694969 113.303 10.6817 113.303 23.0035C113.303 29.1609 110.799 34.7346 106.748 38.7723C102.696 42.8101 97.1036 45.305 90.9252 45.305Z" fill="#BC984E"/>
<path d="M23.159 15.9982V29.2095C23.159 32.038 20.8717 34.3175 18.0336 34.3175C15.1955 34.3175 12.9082 32.038 12.9082 29.2095V15.9982C12.9082 13.1696 15.1955 10.8901 18.0336 10.8901C19.4352 10.8901 20.7114 11.4739 21.6597 12.3843C22.5732 13.3364 23.159 14.6013 23.159 15.9982Z" fill="#BC984E"/>
<path d="M18.033 10.8902C19.4346 10.8902 20.7107 11.4739 21.6591 12.3843C22.5726 13.2948 23.1584 14.5943 23.1584 15.9982V29.2095C23.1584 32.0381 20.8711 34.3176 18.033 34.3176C15.1948 34.3176 12.9076 32.0381 12.9076 29.2095V15.9982C12.9076 13.1697 15.1948 10.8902 18.033 10.8902ZM18.033 9.78516C17.1822 9.78516 16.3664 9.945 15.6202 10.2716C14.8671 10.5983 14.2186 11.0222 13.6258 11.606C13.0401 12.1898 12.6147 12.843 12.287 13.5936C11.9592 14.372 11.7988 15.1851 11.7988 15.9982V29.2095C11.7988 30.0574 11.9592 30.8705 12.287 31.6141C12.6147 32.3647 13.0401 33.011 13.6258 33.6017C14.2116 34.1855 14.8671 34.6094 15.6202 34.9361C16.4012 35.2627 17.2171 35.4226 18.033 35.4226C18.8837 35.4226 19.6996 35.2627 20.4458 34.9361C21.1989 34.6094 21.8474 34.1855 22.4401 33.6017C23.0259 33.018 23.4513 32.3647 23.779 31.6141C24.1068 30.8358 24.2671 30.0227 24.2671 29.2095V15.9982C24.2671 15.1503 24.1068 14.3372 23.779 13.5936C23.4513 12.843 23.0259 12.1967 22.4401 11.606C21.8544 11.0222 21.1989 10.5983 20.4458 10.2716C19.6996 9.95195 18.8837 9.78516 18.033 9.78516Z" fill="#255536"/>
<path d="M23.159 22.6074V29.2096C23.159 32.0382 20.8717 34.3176 18.0336 34.3176C15.1955 34.3176 12.9082 32.0382 12.9082 29.2096V22.6074H23.159Z" fill="#FFFEFE"/>
<path d="M23.1586 15.9983V22.6005H22.2102C22.2102 22.6005 22.3706 18.5627 22.2102 15.3103C22.0498 12.0578 18.0332 10.8833 18.0332 10.8833C19.4348 10.8833 20.711 11.4671 21.6593 12.3775C22.5728 13.3365 23.1586 14.6014 23.1586 15.9983Z" fill="#E1BF83"/>
<g opacity="0.5">
<path d="M23.1586 29.2096V22.6074H22.2102C22.2102 22.6074 22.3706 26.6452 22.2102 29.8976C22.0498 33.1501 18.0332 34.3246 18.0332 34.3246C19.4348 34.3246 20.711 33.7408 21.6593 32.8304C22.5728 31.9131 23.1586 30.6135 23.1586 29.2096Z" fill="#E2E1E1"/>
</g>
<path d="M29.8744 27.917H28.8145V27.5H31.3946V27.917H30.3346V32.1493H29.8814V27.917H29.8744Z" fill="#BC984E"/>
<path d="M31.4989 28.7093H31.9521V29.3139C32.3705 28.7093 32.9772 28.6328 33.2771 28.6328C34.4904 28.6328 35.0971 29.578 35.0971 30.4467C35.0971 31.4683 34.3021 32.2258 33.2352 32.2258C32.3984 32.2258 32.0567 31.6976 31.9103 31.51V33.3656H31.457V28.7093H31.4989ZM31.9173 30.4467C31.9173 31.2042 32.4891 31.8088 33.2422 31.8088C33.9953 31.8088 34.609 31.2042 34.609 30.4467C34.609 29.6544 34.0023 29.0498 33.2422 29.0498C32.4821 29.0498 31.9173 29.6544 31.9173 30.4467Z" fill="#BC984E"/>
<path d="M36.1293 30.5996C36.1642 31.2806 36.7012 31.8088 37.4543 31.8088C37.9842 31.8088 38.4375 31.503 38.6676 31.0166H39.1627C38.8977 31.7741 38.2492 32.2258 37.4961 32.2258C36.471 32.2258 35.7109 31.4683 35.7109 30.4467C35.7109 29.6127 36.3176 28.6328 37.4961 28.6328C38.7862 28.6328 39.2813 29.7309 39.2813 30.5996H36.1293ZM38.7095 30.1826C38.5979 29.5015 38.0261 29.0498 37.4612 29.0498C36.8197 29.0498 36.2479 29.5015 36.1363 30.1826H38.7095Z" fill="#BC984E"/>
<path d="M40.3419 28.7092V30.1826H42.2735V28.7092H42.7268V32.1493H42.2735V30.5995H40.3419V32.1493H39.8887V28.7092H40.3419Z" fill="#BC984E"/>
<path d="M46.75 31.7323H47.0917V33.018H46.6385V32.1493H43.6818V33.018H43.2285V31.7323H43.5702L44.8951 28.7092H45.3902L46.75 31.7323ZM46.2201 31.7323L45.1183 29.2374L44.0165 31.7323H46.2201Z" fill="#BC984E"/>
<path d="M50.6973 30.412C50.6973 31.4336 49.9023 32.1911 48.9121 32.1911C47.887 32.1911 47.127 31.4336 47.127 30.412C47.127 29.3904 47.9219 28.5981 48.9121 28.5981C49.9372 28.6329 50.6973 29.3904 50.6973 30.412ZM47.5872 30.412C47.5872 31.2043 48.159 31.7742 48.9121 31.7742C49.6722 31.7742 50.2371 31.1695 50.2371 30.412C50.2371 29.6197 49.6652 29.0499 48.9121 29.0499C48.152 29.0499 47.5872 29.6545 47.5872 30.412Z" fill="#BC984E"/>
<path d="M52.5939 28.7092C53.3889 28.7092 53.619 29.2027 53.619 29.6196C53.619 29.9602 53.4307 30.2243 53.1657 30.3355C53.5074 30.4119 53.7376 30.7524 53.7376 31.1694C53.7376 31.6976 53.361 32.1493 52.6358 32.1493H51.3457V28.7092H52.5939ZM51.8338 30.1826H52.5521C52.9287 30.1826 53.1239 29.9532 53.1239 29.6544C53.1239 29.161 52.6288 29.161 52.5521 29.161H51.8338V30.1826ZM51.8338 31.7323H52.5939C53.1239 31.7323 53.2773 31.3918 53.2773 31.1625C53.2773 31.0096 53.2424 30.5926 52.5939 30.5926H51.8338V31.7323Z" fill="#BC984E"/>
<path d="M57.8243 30.412C57.8243 31.4336 57.0293 32.1911 56.0391 32.1911C55.014 32.1911 54.2539 31.4336 54.2539 30.412C54.2539 29.3904 55.0489 28.5981 56.0391 28.5981C57.0642 28.6329 57.8243 29.3904 57.8243 30.412ZM54.7141 30.412C54.7141 31.2043 55.286 31.7742 56.0391 31.7742C56.7922 31.7742 57.364 31.1695 57.364 30.412C57.364 29.6197 56.7922 29.0499 56.0391 29.0499C55.286 29.0499 54.7141 29.6545 54.7141 30.412Z" fill="#BC984E"/>
<path d="M59.6085 32.1493L61.0102 30.3702L59.7201 28.744H60.2501L61.5401 30.4467L60.1734 32.1841H59.6016V32.1493H59.6085ZM61.7284 32.1493V28.7092H62.1817V32.1493H61.7284ZM62.3351 30.4119L63.6252 28.7092H64.1551L62.8651 30.3355L64.2667 32.1146H63.6949L62.3351 30.4119Z" fill="#BC984E"/>
<path d="M65.2228 28.7092V31.4683L67.273 28.7092H67.7262V32.1493H67.273V29.3903L65.2228 32.1493H64.7695V28.7092H65.2228Z" fill="#BC984E"/>
<path d="M70.4525 28.7092V29.1262H69.5808V32.1493H69.1275V29.1262H68.2559V28.7092H70.4525Z" fill="#BC984E"/>
<path d="M71.3654 28.7092V31.4683L73.4155 28.7092H73.8688V32.1493H73.4155V29.3903L71.3654 32.1493H70.9121V28.7092H71.3654Z" fill="#BC984E"/>
<path d="M76.5608 29.5432C76.6375 28.8622 77.2023 28.6328 77.6626 28.6328C78.1577 28.6328 78.7644 28.8622 78.7644 29.5432C78.7644 29.8838 78.6109 30.2243 78.2344 30.3772C78.6528 30.4884 78.8411 30.8289 78.8411 31.2459C78.8411 31.8505 78.346 32.2675 77.6626 32.2675C76.7909 32.2675 76.4492 31.7741 76.4492 31.2111H76.9025C76.9025 31.5864 77.1675 31.8505 77.6626 31.8505C78.2693 31.8505 78.3808 31.4335 78.3808 31.2459C78.3808 30.9818 78.2693 30.6413 77.6626 30.6413H77.3558V30.1895H77.6626C78.081 30.1895 78.2693 29.9255 78.2693 29.6197C78.2693 29.3556 78.081 29.0915 77.6626 29.0915C77.2442 29.0915 77.0559 29.3208 76.9792 29.5849H76.5608V29.5432Z" fill="#BC984E"/>
<path d="M82.7051 31.7323H83.0468V33.018H82.5936V32.1493H79.6369V33.018H79.1836V31.7323H79.5253L80.8502 28.7092H81.3453L82.7051 31.7323ZM82.1752 31.7323L81.0734 29.2374L79.9716 31.7323H82.1752Z" fill="#BC984E"/>
<path d="M86.6504 30.412C86.6504 31.4336 85.8555 32.1911 84.8653 32.1911C83.8402 32.1911 83.0801 31.4336 83.0801 30.412C83.0801 29.3904 83.875 28.5981 84.8653 28.5981C85.8903 28.6329 86.6504 29.3904 86.6504 30.412ZM83.5403 30.412C83.5403 31.2043 84.1121 31.7742 84.8653 31.7742C85.6184 31.7742 86.1902 31.1695 86.1902 30.412C86.1902 29.6197 85.6184 29.0499 84.8653 29.0499C84.1121 29.0499 83.5403 29.6545 83.5403 30.412Z" fill="#BC984E"/>
<path d="M87.3351 28.7093H87.7884V29.3139C88.2068 28.7093 88.8134 28.6328 89.1133 28.6328C90.3267 28.6328 90.9333 29.578 90.9333 30.4467C90.9333 31.4683 90.1384 32.2258 89.0715 32.2258C88.2347 32.2258 87.893 31.6976 87.7465 31.51V33.3656H87.3281V28.7093H87.3351ZM87.7535 30.4467C87.7535 31.2042 88.3253 31.8088 89.0784 31.8088C89.8385 31.8088 90.4452 31.2042 90.4452 30.4467C90.4452 29.6544 89.8385 29.0498 89.0784 29.0498C88.3183 29.0498 87.7535 29.6544 87.7535 30.4467Z" fill="#BC984E"/>
<path d="M95.0684 30.412C95.0684 31.4336 94.2734 32.1911 93.2832 32.1911C92.2581 32.1911 91.498 31.4336 91.498 30.412C91.498 29.3904 92.293 28.5981 93.2832 28.5981C94.3153 28.6329 95.0684 29.3904 95.0684 30.412ZM91.9583 30.412C91.9583 31.2043 92.5301 31.7742 93.2832 31.7742C94.0363 31.7742 94.6082 31.1695 94.6082 30.412C94.6082 29.6197 94.0363 29.0499 93.2832 29.0499C92.5301 29.0499 91.9583 29.6545 91.9583 30.412Z" fill="#BC984E"/>
<path d="M96.965 28.7092C97.76 28.7092 97.9901 29.2027 97.9901 29.6196C97.9901 29.9602 97.8018 30.2243 97.5368 30.3355C97.8785 30.4119 98.1086 30.7524 98.1086 31.1694C98.1086 31.6976 97.7321 32.1493 97.0069 32.1493H95.7168V28.7092H96.965ZM96.2049 30.1826H96.9232C97.2997 30.1826 97.495 29.9532 97.495 29.6544C97.495 29.161 96.9999 29.161 96.9232 29.161H96.2049V30.1826ZM96.2049 31.7323H96.965C97.495 31.7323 97.6484 31.3918 97.6484 31.1625C97.6484 31.0096 97.6135 30.5926 96.965 30.5926H96.2049V31.7323Z" fill="#BC984E"/>
<path d="M102.201 30.412C102.201 31.4336 101.406 32.1911 100.416 32.1911C99.391 32.1911 98.6309 31.4336 98.6309 30.412C98.6309 29.3904 99.4258 28.5981 100.416 28.5981C101.441 28.6329 102.201 29.3904 102.201 30.412ZM99.0911 30.412C99.0911 31.2043 99.6629 31.7742 100.416 31.7742C101.169 31.7742 101.741 31.1695 101.741 30.412C101.741 29.6197 101.169 29.0499 100.416 29.0499C99.6629 29.0499 99.0911 29.6545 99.0911 30.412Z" fill="#BC984E"/>
<path d="M28.9392 12.9404H36.8051V23.8445H35.6963V13.9203H30.02V23.8445H28.9043V12.9404H28.9392Z" fill="#255536"/>
<path d="M36.9381 23.9416H35.6341V14.0175H30.181V23.9416H28.877V12.8152H36.973V23.9416H36.9381ZM35.8294 23.7123H36.708V13.0376H29.0722V23.7123H29.9508V13.8229H35.8573V23.7123H35.8294Z" fill="#255536"/>
<path d="M38.8359 12.9404H39.9447V14.796H38.8359V12.9404ZM38.8359 15.7759H39.9447V23.8445H38.8359V15.7759Z" fill="#255536"/>
<path d="M46.0166 15.7759V16.7488H42.9134V23.8097H41.8047V15.7759H46.0166Z" fill="#255536"/>
<path d="M54.0164 15.7759L49.3512 26.673H48.1727L49.5116 23.4831L46.3457 15.8037H47.6497L50.195 22.0862L52.8379 15.8037H54.0164V15.7759Z" fill="#255536"/>
<path d="M61.0313 23.8445H59.8528L57.0147 17.1728L54.1765 23.8445H52.998L56.4568 15.7759H57.6004L61.0313 23.8445Z" fill="#255536"/>
<path d="M63.1852 15.7759V18.8685H65.3748C67.5645 18.8685 68.1154 20.4322 68.1154 21.3704C68.1154 22.3155 67.5575 23.8445 65.3748 23.8445H62.1113V15.7759H63.1852ZM63.1852 22.8368H65.34C66.4836 22.8368 67.0066 22.1209 67.0066 21.3426C67.0066 20.5642 66.4836 19.8484 65.34 19.8484H63.1852V22.8368Z" fill="#255536"/>
<path d="M70.5638 15.7759V19.1951H75.1035V15.7759H76.2122V23.8445H75.1035V20.2028H70.5638V23.8445H69.4551V15.7759H70.5638Z" fill="#255536"/>
<path d="M83.8552 23.8445H82.7814V16.7489H80.5917C80.3616 16.7489 78.695 16.7489 78.695 18.4724C78.695 19.3828 79.218 20.0986 80.5917 20.0986H81.7005L79.0227 23.8376H77.7815L79.9711 20.9743C78.5695 20.877 77.6211 19.8345 77.6211 18.4376C77.6211 17.0686 78.6671 15.8037 80.5917 15.8037H83.8552V23.8445Z" fill="#255536"/>
<path d="M88.9453 17.1726H89.8588L93.5826 22.7046V17.1726H94.2381V23.8096H93.5826L89.6008 17.951V23.8096H88.9453V17.1726ZM96.2255 17.1726C96.9786 17.1726 97.5643 17.7911 97.5643 18.5069C97.5643 19.2575 96.9437 19.8413 96.2255 19.8413C95.4724 19.8413 94.8866 19.2228 94.8866 18.5069C94.8866 17.7911 95.4724 17.1726 96.2255 17.1726ZM97.4667 20.5224V21.1409H95.0191V20.5224H97.4667ZM96.2255 19.3826C96.6857 19.3826 97.0762 18.9934 97.0762 18.5347C97.0762 18.0761 96.6857 17.6869 96.2255 17.6869C95.7652 17.6869 95.3747 18.0761 95.3747 18.5347C95.3747 18.9934 95.7722 19.3826 96.2255 19.3826Z" fill="#255536"/>
<path d="M101.092 13.9202H99.2305V12.9473H102.201V23.8444H101.092V13.9202Z" fill="#255536"/>
</svg>
